<svg width="191" height="47" viewBox="0 0 191 47" fill="none" xmlns="http://www.w3.org/2000/svg">
<path d="M69.762 30.152L68.742 36H52.762L52.898 35.15L67.416 14.07H61.058C60.5367 14.07 60.1513 14.0927 59.902 14.138C59.6527 14.1607 59.4827 14.24 59.392 14.376C59.3013 14.4893 59.188 14.682 59.052 14.954L57.318 18.728H56.366L57.386 12.88H72.482L72.312 13.73L57.794 34.81H65.07C65.614 34.81 65.9993 34.7987 66.226 34.776C66.4527 34.7307 66.6227 34.6513 66.736 34.538C66.8493 34.402 66.9627 34.198 67.076 33.926L68.81 30.152H69.762ZM86.3545 32.668C85.5612 34.0507 84.5639 35.014 83.3625 35.558C82.1612 36.0793 80.9372 36.34 79.6905 36.34C78.0359 36.34 76.6532 35.9547 75.5425 35.184C74.4545 34.4133 73.6952 33.348 73.2645 31.988C72.8565 30.6053 72.8112 28.996 73.1285 27.16L73.2645 26.412C73.5592 24.8253 74.1145 23.4427 74.9305 22.264C75.7692 21.0627 76.8232 20.122 78.0925 19.442C79.3619 18.762 80.7785 18.422 82.3425 18.422C83.5212 18.422 84.5072 18.6147 85.3005 19C86.0939 19.3853 86.6945 19.8953 87.1025 20.53C87.5105 21.142 87.7145 21.7993 87.7145 22.502C87.7145 23.6807 87.3179 24.6893 86.5245 25.528C85.7312 26.3667 84.6319 27.0353 83.2265 27.534C81.8439 28.01 80.2345 28.316 78.3985 28.452L77.1065 28.554C76.4492 32.9513 77.4125 35.15 79.9965 35.15C80.4952 35.15 81.0392 35.048 81.6285 34.844C82.2179 34.6173 82.7732 34.2433 83.2945 33.722C83.8385 33.2007 84.2579 32.5093 84.5525 31.648L86.3545 32.668ZM77.5145 25.97L77.2765 27.364L78.3645 27.296C79.9965 27.1827 81.2432 26.8767 82.1045 26.378C82.9885 25.8567 83.5892 25.2333 83.9065 24.508C84.2465 23.7827 84.4165 23.0687 84.4165 22.366C84.4165 21.5047 84.2125 20.836 83.8045 20.36C83.4192 19.8613 82.8639 19.612 82.1385 19.612C81.1185 19.612 80.1892 20.122 79.3505 21.142C78.5119 22.1393 77.8999 23.7487 77.5145 25.97ZM108.967 33.178C108.468 34.2207 107.868 34.98 107.165 35.456C106.462 35.932 105.658 36.17 104.751 36.17C103.504 36.17 102.575 35.7393 101.963 34.878C101.351 33.994 101.204 32.7587 101.521 31.172L102.847 24.576C103.164 23.012 103.176 21.8787 102.881 21.176C102.586 20.4507 102.088 20.088 101.385 20.088C100.977 20.088 100.478 20.224 99.8889 20.496C99.2996 20.7453 98.6649 21.21 97.9849 21.89C97.3276 22.57 96.6703 23.5447 96.0129 24.814L94.0409 36H90.1309L92.6469 21.618C92.7829 20.8473 92.8283 20.394 92.7829 20.258C92.7376 20.0993 92.5449 19.9973 92.2049 19.952L90.3689 19.714L90.5389 18.762H96.8629L96.2849 22.094C97.2143 20.8247 98.2003 19.8953 99.2429 19.306C100.308 18.7167 101.396 18.422 102.507 18.422C104.116 18.422 105.318 18.9547 106.111 20.02C106.927 21.0853 107.142 22.5927 106.757 24.542L105.499 30.9C105.204 32.464 105.057 33.5067 105.057 34.028C105.08 34.5493 105.272 34.81 105.635 34.81C105.952 34.81 106.292 34.6287 106.655 34.266C107.018 33.9033 107.346 33.2913 107.641 32.43L108.967 33.178ZM111.45 18.728L112.47 12.88H131.17L130.15 18.728H129.198L128.756 14.954C128.733 14.6593 128.688 14.4553 128.62 14.342C128.574 14.206 128.438 14.1267 128.212 14.104C128.008 14.0813 127.634 14.07 127.09 14.07H123.656L120.29 33.144C120.154 33.9147 120.108 34.3793 120.154 34.538C120.199 34.674 120.392 34.7647 120.732 34.81L122.568 35.048L122.398 36H113.082L113.252 35.048L115.156 34.81C115.541 34.7647 115.779 34.674 115.87 34.538C115.96 34.3793 116.074 33.9147 116.21 33.144L119.576 14.07H116.142C115.62 14.07 115.235 14.0813 114.986 14.104C114.759 14.1267 114.589 14.206 114.476 14.342C114.385 14.4553 114.272 14.6593 114.136 14.954L112.402 18.728H111.45ZM143.569 36.17C142.64 36.17 141.88 35.9207 141.291 35.422C140.724 34.9007 140.384 34.164 140.271 33.212C139.546 34.4133 138.752 35.2407 137.891 35.694C137.03 36.1247 136.146 36.34 135.239 36.34C133.856 36.34 132.734 35.9207 131.873 35.082C131.034 34.2433 130.468 33.11 130.173 31.682C129.901 30.254 129.924 28.6787 130.241 26.956L130.377 26.208C130.694 24.508 131.25 23.08 132.043 21.924C132.836 20.768 133.777 19.8953 134.865 19.306C135.976 18.7167 137.143 18.422 138.367 18.422C140.112 18.422 141.438 19.0113 142.345 20.19C142.866 20.054 143.399 19.8727 143.943 19.646C144.51 19.4193 145.042 19.1247 145.541 18.762H146.459L144.317 30.9C144.022 32.4867 143.886 33.5407 143.909 34.062C143.932 34.5607 144.113 34.81 144.453 34.81C144.77 34.81 145.11 34.6287 145.473 34.266C145.836 33.9033 146.164 33.2913 146.459 32.43L147.785 33.178C147.286 34.2207 146.686 34.98 145.983 35.456C145.28 35.932 144.476 36.17 143.569 36.17ZM134.321 27.568C133.89 30.0613 133.856 31.92 134.219 33.144C134.604 34.3453 135.228 34.946 136.089 34.946C136.406 34.946 136.792 34.844 137.245 34.64C137.721 34.4133 138.231 33.9827 138.775 33.348C139.342 32.6907 139.908 31.7273 140.475 30.458L141.971 21.89C141.608 21.0967 141.132 20.5527 140.543 20.258C139.976 19.9407 139.398 19.782 138.809 19.782C137.63 19.782 136.712 20.3147 136.055 21.38C135.42 22.4453 134.944 23.9187 134.627 25.8L134.321 27.568ZM155.092 36.34C154.208 36.34 153.302 36.2267 152.372 36C151.443 35.7507 150.65 35.3087 149.992 34.674C149.335 34.0393 148.938 33.1327 148.802 31.954L151.182 31.07C151.069 32.566 151.375 33.62 152.1 34.232C152.848 34.844 153.823 35.15 155.024 35.15C156.316 35.15 157.268 34.8667 157.88 34.3C158.492 33.7333 158.798 33.042 158.798 32.226C158.798 31.5913 158.594 31.07 158.186 30.662C157.801 30.2313 157.098 29.8233 156.078 29.438L154.14 28.69C152.984 28.2367 152.089 27.6133 151.454 26.82C150.82 26.0267 150.502 25.0747 150.502 23.964C150.502 23.0573 150.729 22.1847 151.182 21.346C151.636 20.5073 152.361 19.816 153.358 19.272C154.356 18.7053 155.659 18.422 157.268 18.422C158.742 18.422 159.954 18.6827 160.906 19.204C161.881 19.7027 162.55 20.3713 162.912 21.21C163.275 22.026 163.286 22.9213 162.946 23.896L159.104 24.44C159.603 22.8987 159.671 21.7087 159.308 20.87C158.946 20.0313 158.175 19.612 156.996 19.612C156.09 19.612 155.364 19.8613 154.82 20.36C154.276 20.8587 154.004 21.5387 154.004 22.4C154.004 23.2387 154.231 23.8733 154.684 24.304C155.16 24.7347 155.75 25.086 156.452 25.358L158.356 26.106C159.558 26.582 160.51 27.194 161.212 27.942C161.938 28.6673 162.3 29.6647 162.3 30.934C162.3 31.9087 162.04 32.804 161.518 33.62C161.02 34.436 160.238 35.0933 159.172 35.592C158.107 36.0907 156.747 36.34 155.092 36.34ZM175.926 36L172.9 27.636L170.656 29.54L169.534 36H165.624L169.534 13.696C169.67 12.9253 169.716 12.472 169.67 12.336C169.625 12.1773 169.432 12.0753 169.092 12.03L167.29 11.792L167.426 10.84H173.954L171.03 27.466L174.906 23.998C175.836 23.182 176.606 22.4793 177.218 21.89C177.853 21.278 178.42 20.768 178.918 20.36C179.417 19.9293 179.904 19.5667 180.38 19.272C180.879 18.9547 181.446 18.6713 182.08 18.422L182.624 22.468C181.174 22.672 179.904 23.012 178.816 23.488C177.751 23.964 176.788 24.508 175.926 25.12L179.02 33.144C179.315 33.9147 179.542 34.3793 179.7 34.538C179.859 34.674 180.12 34.7647 180.482 34.81L182.318 35.048L182.148 36H175.926Z" fill="url(#paint0_angular_7_9)"/>
<path d="M42.3636 11.724L21.6182 32.28L13.9091 24.648L16.4727 22.11L21.6182 27.204L39.8 9.204L42.3636 11.724ZM24.1818 38.4C16.1636 38.4 9.63636 31.938 9.63636 24C9.63636 16.062 16.1636 9.6 24.1818 9.6C27.0364 9.6 29.7091 10.428 31.9636 11.85L34.6 9.24C31.5436 7.13078 27.9075 5.99997 24.1818 6C14.1455 6 6 14.064 6 24C6 33.936 14.1455 42 24.1818 42C27.3273 42 30.2909 41.208 32.8727 39.804L30.1455 37.104C28.3273 37.932 26.3091 38.4 24.1818 38.4ZM36.9091 29.4H31.4545V33H36.9091V38.4H40.5455V33H46V29.4H40.5455V24H36.9091V29.4Z" fill="url(#paint1_angular_7_9)"/>
<defs>
<radialGradient id="paint0_angular_7_9" cx="0" cy="0" r="1" gradientUnits="userSpaceOnUse" gradientTransform="translate(118 23.5) rotate(103.196) scale(32.5411 107.428)">
<stop offset="0.271875" stop-color="#0066FF"/>
<stop offset="0.391666" stop-color="#FA8700"/>
</radialGradient>
<radialGradient id="paint1_angular_7_9" cx="0" cy="0" r="1" gradientUnits="userSpaceOnUse" gradientTransform="translate(26 24) rotate(33.6901) scale(37.8583 4.31556)">
<stop stop-color="#0066FF"/>
<stop offset="0.969678" stop-color="#FA8700"/>
<stop offset="1" stop-color="#0066FF"/>
</radialGradient>
</defs>
</svg>
